<svg xmlns="http://www.w3.org/2000/svg" xmlns:xlink="http://www.w3.org/1999/xlink" width="40" zoomAndPan="magnify" viewBox="0 0 30 30.000001" height="40" preserveAspectRatio="xMidYMid meet" version="1.0"><defs><clipPath id="0a77c72cb4"><path d="M 0.484375 0 L 29.515625 0 L 29.515625 29 L 0.484375 29 Z M 0.484375 0 " clip-rule="nonzero"/></clipPath><clipPath id="cfa06b3ea9"><path d="M 0.484375 0 L 29.515625 0 L 29.515625 29.03125 L 0.484375 29.03125 Z M 0.484375 0 " clip-rule="nonzero"/></clipPath><clipPath id="7772d8e30e"><path d="M 9 3 L 24 3 L 24 29.03125 L 9 29.03125 Z M 9 3 " clip-rule="nonzero"/></clipPath></defs><g clip-path="url(#0a77c72cb4)"><path fill="#1e1b1e" d="M 29.480469 14.511719 C 29.480469 15.464844 29.386719 16.40625 29.203125 17.335938 C 29.015625 18.269531 28.742188 19.175781 28.378906 20.054688 C 28.015625 20.933594 27.566406 21.765625 27.039062 22.558594 C 26.511719 23.347656 25.910156 24.078125 25.238281 24.753906 C 24.566406 25.425781 23.835938 26.023438 23.042969 26.554688 C 22.253906 27.082031 21.417969 27.527344 20.542969 27.890625 C 19.664062 28.253906 18.757812 28.53125 17.824219 28.714844 C 16.890625 28.902344 15.949219 28.992188 15 28.992188 C 14.050781 28.992188 13.109375 28.902344 12.175781 28.714844 C 11.242188 28.53125 10.335938 28.253906 9.457031 27.890625 C 8.582031 27.527344 7.746094 27.082031 6.957031 26.554688 C 6.164062 26.023438 5.433594 25.425781 4.761719 24.753906 C 4.089844 24.078125 3.488281 23.347656 2.960938 22.558594 C 2.433594 21.765625 1.984375 20.933594 1.621094 20.054688 C 1.257812 19.175781 0.984375 18.269531 0.796875 17.335938 C 0.613281 16.40625 0.519531 15.464844 0.519531 14.511719 C 0.519531 13.5625 0.613281 12.621094 0.796875 11.6875 C 0.984375 10.753906 1.257812 9.851562 1.621094 8.972656 C 1.984375 8.09375 2.433594 7.257812 2.960938 6.46875 C 3.488281 5.675781 4.089844 4.945312 4.761719 4.273438 C 5.433594 3.601562 6.164062 3 6.957031 2.472656 C 7.746094 1.945312 8.582031 1.5 9.457031 1.136719 C 10.335938 0.769531 11.242188 0.496094 12.175781 0.3125 C 13.109375 0.125 14.050781 0.03125 15 0.03125 C 15.949219 0.03125 16.890625 0.125 17.824219 0.3125 C 18.757812 0.496094 19.664062 0.769531 20.542969 1.136719 C 21.417969 1.5 22.253906 1.945312 23.042969 2.472656 C 23.835938 3 24.566406 3.601562 25.238281 4.273438 C 25.910156 4.945312 26.511719 5.675781 27.039062 6.46875 C 27.566406 7.257812 28.015625 8.09375 28.378906 8.972656 C 28.742188 9.851562 29.015625 10.753906 29.203125 11.6875 C 29.386719 12.621094 29.480469 13.5625 29.480469 14.511719 Z M 29.480469 14.511719 " fill-opacity="1" fill-rule="nonzero"/></g><g clip-path="url(#cfa06b3ea9)"><path stroke-linecap="butt" transform="matrix(0.0651678, 0, 0, 0.0651678, -0.672858, -0.775495)" fill="none" stroke-linejoin="miter" d="M 462.70284 234.582316 C 462.70284 249.20802 461.264246 263.653901 458.447 277.919957 C 455.569812 292.245954 451.373913 306.152362 445.799362 319.639179 C 440.22481 333.125997 433.331548 345.893518 425.239457 358.061624 C 417.147367 370.16979 407.916389 381.378834 397.606467 391.748698 C 387.296544 402.058621 376.0875 411.229657 363.919393 419.381689 C 351.811228 427.473779 338.983766 434.3071 325.556889 439.881652 C 312.070072 445.456203 298.163664 449.712043 283.837667 452.52929 C 269.511669 455.406477 255.065789 456.78513 240.500026 456.78513 C 225.934263 456.78513 211.488383 455.406477 197.162385 452.52929 C 182.836388 449.712043 168.92998 445.456203 155.443163 439.881652 C 142.016286 434.3071 129.188824 427.473779 117.080659 419.381689 C 104.912552 411.229657 93.703508 402.058621 83.393586 391.748698 C 73.083663 381.378834 63.852685 370.16979 55.760595 358.061624 C 47.668504 345.893518 40.775242 333.125997 35.20069 319.639179 C 29.626139 306.152362 25.43024 292.245954 22.553053 277.919957 C 19.735806 263.653901 18.297212 249.20802 18.297212 234.582316 C 18.297212 220.016553 19.735806 205.570673 22.553053 191.244675 C 25.43024 176.918678 29.626139 163.072212 35.20069 149.585394 C 40.775242 136.098576 47.668504 123.271114 55.760595 111.162949 C 63.852685 98.994842 73.083663 87.785798 83.393586 77.475876 C 93.703508 67.165953 104.912552 57.934975 117.080659 49.842885 C 129.188824 41.750794 142.016286 34.917473 155.443163 29.342922 C 168.92998 23.708429 182.836388 19.51253 197.162385 16.695284 C 211.488383 13.818096 225.934263 12.379502 240.500026 12.379502 C 255.065789 12.379502 269.511669 13.818096 283.837667 16.695284 C 298.163664 19.51253 312.070072 23.708429 325.556889 29.342922 C 338.983766 34.917473 351.811228 41.750794 363.919393 49.842885 C 376.0875 57.934975 387.296544 67.165953 397.606467 77.475876 C 407.916389 87.785798 417.147367 98.994842 425.239457 111.162949 C 433.331548 123.271114 440.22481 136.098576 445.799362 149.585394 C 451.373913 163.072212 455.569812 176.918678 458.447 191.244675 C 461.264246 205.570673 462.70284 220.016553 462.70284 234.582316 Z M 462.70284 234.582316 " stroke="#4267b2" stroke-width="1" stroke-opacity="1" stroke-miterlimit="10"/></g><path fill="#ffffff" d="M 18.402344 4.308594 C 17.25 4.515625 16.851562 4.710938 16.1875 5.089844 C 15.476562 5.492188 14.980469 5.917969 14.640625 6.261719 C 13.535156 7.410156 13.285156 8.476562 13.078125 9.304688 C 12.765625 10.523438 12.796875 11.671875 12.796875 11.671875 L 12.796875 12.5625 L 10.472656 12.5625 L 10.472656 16.609375 L 12.796875 16.609375 L 12.796875 28.832031 C 13.515625 28.941406 14.25 29 15 29 C 16.109375 29 17.191406 28.875 18.226562 28.640625 L 18.226562 16.609375 L 21.765625 16.609375 L 21.765625 12.5625 L 18.226562 12.5625 L 18.226562 11.703125 C 18.226562 11.703125 18.226562 11.546875 18.226562 11.527344 C 18.226562 11.507812 18.226562 11.484375 18.226562 11.464844 C 18.226562 11.285156 18.230469 11.027344 18.269531 10.796875 C 18.371094 10.207031 18.570312 9.742188 18.910156 9.332031 C 19.300781 8.863281 19.757812 8.660156 20.265625 8.582031 C 21.523438 8.386719 22.574219 8.824219 22.574219 8.824219 L 22.769531 4.566406 C 22.769531 4.566406 21.980469 4.3125 20.675781 4.222656 C 19.757812 4.15625 18.941406 4.210938 18.402344 4.308594 Z M 18.402344 4.308594 " fill-opacity="1" fill-rule="nonzero"/><g clip-path="url(#7772d8e30e)"><path stroke-linecap="butt" transform="matrix(0.0651678, 0, 0, 0.0651678, -0.672858, -0.775495)" fill="none" stroke-linejoin="miter" d="M 292.708996 78.015348 C 275.026279 81.192243 268.912255 84.189314 258.722215 90.003631 C 247.812878 96.177596 240.200319 102.71121 234.985416 107.986054 C 218.021997 125.608829 214.185746 141.972835 211.008851 154.680414 C 206.213538 173.382134 206.69307 191.00491 206.69307 191.00491 L 206.69307 204.671551 L 171.02793 204.671551 L 171.02793 266.770854 L 206.69307 266.770854 L 206.69307 454.327532 C 217.72229 456.005891 228.991275 456.905013 240.500026 456.905013 C 257.523387 456.905013 274.127158 454.986887 290.011632 451.390403 L 290.011632 266.770854 L 344.318551 266.770854 L 344.318551 204.671551 L 290.011632 204.671551 L 290.011632 191.484441 C 290.011632 191.484441 290.011632 189.086784 290.011632 188.787077 C 290.011632 188.48737 290.011632 188.127722 290.011632 187.828015 C 290.011632 185.07071 290.071574 181.114577 290.670988 177.578033 C 292.229464 168.52688 295.286476 161.393852 300.501379 155.100004 C 306.495521 147.907034 313.508666 144.790081 321.301049 143.591253 C 340.602184 140.594182 356.726424 147.30762 356.726424 147.30762 L 359.723494 81.971481 C 359.723494 81.971481 347.615329 78.07529 327.594897 76.696637 C 313.508666 75.677633 300.980911 76.516813 292.708996 78.015348 Z M 292.708996 78.015348 " stroke="#ffffff" stroke-width="1" stroke-opacity="1" stroke-miterlimit="10"/></g></svg>