<svg xmlns="http://www.w3.org/2000/svg" xmlns:xlink="http://www.w3.org/1999/xlink" width="40" zoomAndPan="magnify" viewBox="0 0 30 30.000001" height="40" preserveAspectRatio="xMidYMid meet" version="1.0"><defs><clipPath id="3554f75314"><path d="M 0.484375 0 L 29.515625 0 L 29.515625 29.03125 L 0.484375 29.03125 Z M 0.484375 0 " clip-rule="nonzero"/></clipPath></defs><g clip-path="url(#3554f75314)"><path fill="#000000" d="M 25.15625 -0.00390625 L 4.84375 -0.00390625 C 2.4375 -0.00390625 0.480469 1.953125 0.480469 4.359375 L 0.480469 24.675781 C 0.480469 27.078125 2.4375 29.035156 4.84375 29.035156 L 25.15625 29.035156 C 27.5625 29.035156 29.519531 27.078125 29.519531 24.675781 L 29.519531 4.359375 C 29.519531 1.953125 27.5625 -0.00390625 25.15625 -0.00390625 Z M 28.273438 24.671875 C 28.273438 26.390625 26.875 27.789062 25.15625 27.789062 L 4.84375 27.789062 C 3.125 27.789062 1.726562 26.390625 1.726562 24.671875 L 1.726562 4.359375 C 1.726562 2.640625 3.125 1.242188 4.84375 1.242188 L 25.15625 1.242188 C 26.875 1.242188 28.273438 2.640625 28.273438 4.359375 Z M 28.273438 24.671875 " fill-opacity="1" fill-rule="nonzero"/></g><path fill="#000000" d="M 15 7.972656 C 11.394531 7.972656 8.457031 10.910156 8.457031 14.515625 C 8.457031 18.125 11.394531 21.058594 15 21.058594 C 18.605469 21.058594 21.542969 18.125 21.542969 14.515625 C 21.542969 10.910156 18.605469 7.972656 15 7.972656 Z M 15 19.8125 C 12.078125 19.8125 9.703125 17.4375 9.703125 14.515625 C 9.703125 11.597656 12.078125 9.21875 15 9.21875 C 17.921875 9.21875 20.296875 11.597656 20.296875 14.515625 C 20.296875 17.4375 17.921875 19.8125 15 19.8125 Z M 15 19.8125 " fill-opacity="1" fill-rule="nonzero"/><path fill="#000000" d="M 24.414062 1.746094 C 22.351562 1.746094 20.675781 3.421875 20.675781 5.484375 C 20.675781 5.996094 20.78125 6.488281 20.96875 6.933594 C 19.324219 5.636719 17.253906 4.859375 15 4.859375 C 9.675781 4.859375 5.34375 9.191406 5.34375 14.515625 C 5.34375 19.839844 9.675781 24.171875 15 24.171875 C 20.324219 24.171875 24.65625 19.839844 24.65625 14.515625 C 24.65625 12.402344 23.972656 10.449219 22.816406 8.859375 C 23.304688 9.085938 23.84375 9.21875 24.414062 9.21875 C 26.476562 9.21875 28.152344 7.542969 28.152344 5.484375 C 28.152344 3.421875 26.476562 1.746094 24.414062 1.746094 Z M 15 22.925781 C 10.363281 22.925781 6.589844 19.152344 6.589844 14.515625 C 6.589844 9.878906 10.363281 6.105469 15 6.105469 C 19.636719 6.105469 23.410156 9.878906 23.410156 14.515625 C 23.410156 19.152344 19.636719 22.925781 15 22.925781 Z M 24.414062 7.972656 C 23.039062 7.972656 21.921875 6.855469 21.921875 5.484375 C 21.921875 4.109375 23.039062 2.992188 24.414062 2.992188 C 25.789062 2.992188 26.90625 4.109375 26.90625 5.484375 C 26.90625 6.855469 25.789062 7.972656 24.414062 7.972656 Z M 24.414062 7.972656 " fill-opacity="1" fill-rule="nonzero"/></svg>