<svg xmlns="http://www.w3.org/2000/svg" xmlns:xlink="http://www.w3.org/1999/xlink" width="40" zoomAndPan="magnify" viewBox="0 0 30 30.000001" height="40" preserveAspectRatio="xMidYMid meet" version="1.0"><defs><clipPath id="fae29fd444"><path d="M 0.484375 3.808594 L 29.515625 3.808594 L 29.515625 25.585938 L 0.484375 25.585938 Z M 0.484375 3.808594 " clip-rule="nonzero"/></clipPath></defs><g clip-path="url(#fae29fd444)"><path fill="#000000" d="M 5.332031 3.8125 C 2.667969 3.8125 0.496094 6.023438 0.496094 8.726562 L 0.496094 20.667969 C 0.496094 23.375 2.667969 25.585938 5.332031 25.585938 L 24.667969 25.585938 C 27.332031 25.585938 29.503906 23.375 29.503906 20.667969 L 29.503906 8.726562 C 29.503906 6.023438 27.332031 3.8125 24.667969 3.8125 Z M 5.332031 5.917969 L 24.667969 5.917969 C 26.21875 5.917969 27.433594 7.152344 27.433594 8.726562 L 27.433594 20.667969 C 27.433594 22.242188 26.21875 23.476562 24.667969 23.476562 L 5.332031 23.476562 C 3.78125 23.476562 2.566406 22.242188 2.566406 20.667969 L 2.566406 8.726562 C 2.566406 7.152344 3.78125 5.917969 5.332031 5.917969 Z M 12.613281 9.078125 C 12.476562 9.074219 12.339844 9.097656 12.207031 9.148438 C 12.078125 9.199219 11.960938 9.277344 11.863281 9.375 C 11.761719 9.472656 11.683594 9.589844 11.628906 9.722656 C 11.574219 9.851562 11.546875 9.988281 11.546875 10.132812 L 11.546875 19.261719 C 11.546875 19.535156 11.632812 19.769531 11.8125 19.972656 C 11.988281 20.171875 12.210938 20.289062 12.476562 20.316406 C 12.6875 20.339844 12.890625 20.300781 13.078125 20.195312 L 21.367188 15.628906 C 21.730469 15.429688 21.910156 15.121094 21.910156 14.703125 C 21.910156 14.285156 21.730469 13.976562 21.367188 13.777344 L 13.078125 9.210938 C 12.933594 9.128906 12.78125 9.085938 12.613281 9.078125 Z M 13.617188 11.910156 L 18.691406 14.699219 L 13.617188 17.496094 Z M 13.617188 11.910156 " fill-opacity="1" fill-rule="nonzero"/></g></svg>