<svg xmlns="http://www.w3.org/2000/svg" xmlns:xlink="http://www.w3.org/1999/xlink" width="40" zoomAndPan="magnify" viewBox="0 0 30 30.000001" height="40" preserveAspectRatio="xMidYMid meet" version="1.0"><defs><clipPath id="fb6656391f"><path d="M 0.484375 2.902344 L 29.515625 2.902344 L 29.515625 24 L 0.484375 24 Z M 0.484375 2.902344 " clip-rule="nonzero"/></clipPath></defs><g clip-path="url(#fb6656391f)"><path fill="#ff0000" d="M 2.054688 3.632812 C 2.054688 3.632812 0.484375 3.921875 0.484375 7.980469 C 0.484375 12.035156 0.574219 22.0625 1.269531 22.753906 C 3.203125 24.671875 11.210938 23.335938 19.078125 23.550781 C 26.941406 23.769531 29.515625 23.476562 29.515625 21.160156 C 29.515625 18.84375 28.800781 6.964844 28.800781 5.082031 C 28.800781 3.199219 28.371094 2.910156 22.796875 2.910156 C 17.21875 2.910156 2.054688 3.632812 2.054688 3.632812 Z M 2.054688 3.632812 " fill-opacity="1" fill-rule="nonzero"/></g><path fill="#ffffff" d="M 9.625 8.714844 C 9.625 8.714844 9.945312 17.082031 10.160156 17.734375 C 10.375 18.386719 10.484375 19.144531 13.269531 18.277344 C 16.058594 17.40625 20.457031 14.148438 20.457031 14.148438 C 20.457031 14.148438 21.851562 13.171875 20.457031 12.410156 C 19.0625 11.648438 10.910156 8.171875 10.910156 8.171875 C 10.910156 8.171875 9.582031 7.628906 9.625 8.714844 Z M 9.625 8.714844 " fill-opacity="1" fill-rule="nonzero"/></svg>